<svg version="1.1" id="Layer_1" xmlns="http://www.w3.org/2000/svg" xmlns:xlink="http://www.w3.org/1999/xlink" x="0px" y="0px"
	 width="100%" viewBox="0 0 337 326" enable-background="new 0 0 337 326" xml:space="preserve">
<path fill="#F7F7F7" opacity="1.000000" stroke="none" 
	d="
M188.000000,327.000000 
	C125.333336,327.000000 63.166668,327.000000 1.000000,327.000000 
	C1.000000,218.333328 1.000000,109.666664 1.000000,1.000000 
	C113.333336,1.000000 225.666672,1.000000 338.000000,1.000000 
	C338.000000,109.666664 338.000000,218.333328 338.000000,327.000000 
	C288.166656,327.000000 238.333328,327.000000 188.000000,327.000000 
M51.895573,247.711075 
	C50.730957,247.687134 49.566284,247.639893 48.401741,247.643005 
	C40.194706,247.664993 38.015289,249.812210 38.003132,257.927429 
	C37.989918,266.750336 37.933430,275.574066 38.027252,284.395996 
	C38.086529,289.970001 40.813477,292.955292 46.190224,292.957703 
	C86.140205,292.975647 126.090225,292.892517 166.963577,292.977295 
	C206.107574,292.985474 245.251572,293.004486 284.395569,292.991760 
	C291.434387,292.989471 293.980743,290.409515 293.992706,283.322479 
	C294.021179,266.498901 294.002045,249.675247 294.002106,232.851624 
	C294.002136,217.390182 293.829010,217.211685 278.502502,216.016678 
	C278.389130,207.322815 278.275757,198.628967 278.462524,189.192627 
	C278.488739,176.703903 278.399780,164.213364 278.594177,151.727264 
	C278.679840,146.226654 276.360382,143.267410 271.109009,141.562439 
	C249.291779,134.479065 227.578598,127.075951 205.803467,119.861916 
	C192.561981,115.475052 179.277084,111.219193 165.479874,106.432655 
	C148.041046,100.660980 130.602219,94.889313 113.026093,88.174400 
	C113.017448,74.344093 113.028923,60.513733 112.991814,46.683502 
	C112.972786,39.591660 110.387833,37.565094 103.401413,36.906254 
	C83.565598,35.035679 65.085449,38.372627 48.360832,49.683765 
	C46.723312,50.791248 44.676331,51.292961 43.037651,52.399158 
	C41.590252,53.376232 40.447712,54.804916 38.737831,56.759251 
	C38.493206,57.878109 38.035316,58.997005 38.035526,60.115818 
	C38.039482,81.400635 38.097431,102.685448 38.007187,124.902382 
	C38.004631,135.516830 38.000744,146.131271 37.999840,156.745728 
	C37.998589,171.397202 38.508194,171.918472 52.988361,172.954605 
	C52.908714,197.956665 52.829063,222.958725 51.895573,247.711075 
z"/>
<path fill="#555A66" opacity="1.000000" stroke="none" 
	d="
M52.907326,172.023590 
	C38.508194,171.918472 37.998589,171.397202 37.999840,156.745728 
	C38.000744,146.131271 38.004631,135.516830 38.436077,124.404953 
	C40.870991,123.116463 42.928738,122.435104 44.875027,121.517365 
	C64.272697,112.370781 83.649536,103.180000 103.039139,94.016273 
	C105.919861,92.654816 108.836334,91.369003 112.500954,89.699905 
	C110.833855,88.641449 110.197662,88.130814 109.479309,87.796997 
	C90.338593,78.902626 71.208191,69.985573 52.026958,61.179253 
	C47.837238,59.255699 43.460941,57.738529 39.170570,56.034203 
	C40.447712,54.804916 41.590252,53.376232 43.037651,52.399158 
	C44.676331,51.292961 46.723312,50.791248 48.360832,49.683765 
	C65.085449,38.372627 83.565598,35.035679 103.401413,36.906254 
	C110.387833,37.565094 112.972786,39.591660 112.991814,46.683502 
	C113.028923,60.513733 113.017448,74.344093 113.024124,89.016479 
	C112.286522,92.055191 111.636223,94.284843 110.800957,96.442886 
	C106.492752,107.573929 102.137146,118.686623 97.546730,130.053772 
	C92.668785,141.811844 87.901649,153.268219 83.480995,164.856796 
	C81.565445,169.878311 78.535713,172.488480 73.060471,172.021271 
	C71.415855,171.880936 69.747818,172.015167 67.618378,172.015686 
	C62.399940,172.013031 57.653633,172.018311 52.907326,172.023590 
z"/>
<path fill="#FD3119" opacity="1.000000" stroke="none" 
	d="
M166.011688,106.904488 
	C179.277084,111.219193 192.561981,115.475052 205.803467,119.861916 
	C227.578598,127.075951 249.291779,134.479065 271.109009,141.562439 
	C276.360382,143.267410 278.679840,146.226654 278.594177,151.727264 
	C278.399780,164.213364 278.488739,176.703903 277.947998,189.477539 
	C272.832336,188.272751 268.231262,186.783035 263.351135,185.188782 
	C247.114883,179.680252 231.169693,174.240372 215.192612,168.895844 
	C210.836716,167.438751 206.384888,166.268478 202.010712,164.980026 
	C202.044342,164.993469 202.030548,165.064575 202.013840,164.827454 
	C201.758011,164.339874 201.467346,164.241241 200.766113,164.142654 
	C194.928787,162.244659 189.450485,160.498459 183.679337,158.568787 
	C177.555389,156.308182 171.724274,154.231079 165.924515,151.676605 
	C165.974472,136.434341 165.993088,121.669411 166.011688,106.904488 
z"/>
<path fill="#565B67" opacity="1.000000" stroke="none" 
	d="
M278.577667,216.944687 
	C293.829010,217.211685 294.002136,217.390182 294.002106,232.851624 
	C294.002045,249.675247 294.021179,266.498901 293.992706,283.322479 
	C293.980743,290.409515 291.434387,292.989471 284.395569,292.991760 
	C245.251572,293.004486 206.107574,292.985474 166.488251,292.454773 
	C166.021210,287.342010 166.029510,282.751801 166.499634,278.093750 
	C182.667557,278.021973 198.373642,278.018066 214.542725,277.990173 
	C220.563614,277.943970 226.121536,277.921814 232.102966,277.943359 
	C237.768799,277.987061 243.011124,277.987061 248.579514,277.987061 
	C248.579514,262.455902 248.573318,247.652328 248.581497,232.848740 
	C248.587906,221.205673 246.336884,216.465363 263.979919,216.905304 
	C269.178406,216.945389 273.878021,216.945038 278.577667,216.944687 
z"/>
<path fill="#707789" opacity="1.000000" stroke="none" 
	d="
M166.037796,278.161560 
	C166.029510,282.751801 166.021210,287.342010 166.026581,292.386688 
	C126.090225,292.892517 86.140205,292.975647 46.190224,292.957703 
	C40.813477,292.955292 38.086529,289.970001 38.027252,284.395996 
	C37.933430,275.574066 37.989918,266.750336 38.003132,257.927429 
	C38.015289,249.812210 40.194706,247.664993 48.401741,247.643005 
	C49.566284,247.639893 50.730957,247.687134 52.806618,247.800323 
	C58.556572,247.907654 63.395485,247.925735 68.662109,247.826401 
	C69.752007,247.687439 70.414116,247.650208 71.076408,247.646637 
	C81.234566,247.592026 82.994904,249.321045 82.997498,259.351898 
	C82.999069,265.426910 82.997780,271.501923 82.997780,277.968109 
	C89.002426,277.968109 94.433723,277.968109 100.341942,277.979553 
	C106.256035,277.984344 111.693199,277.977692 117.590881,277.971985 
	C134.046860,278.035828 150.042328,278.098694 166.037796,278.161560 
z"/>
<path fill="#FE5943" opacity="1.000000" stroke="none" 
	d="
M165.745789,106.668571 
	C165.993088,121.669411 165.974472,136.434341 165.541260,151.655228 
	C160.255371,150.724228 155.384064,149.337265 150.272125,147.645935 
	C145.465897,145.861923 140.900314,144.382248 136.050690,142.653656 
	C123.110458,138.205063 110.454262,134.005386 97.798080,129.805710 
	C102.137146,118.686623 106.492752,107.573929 110.800957,96.442886 
	C111.636223,94.284843 112.286522,92.055191 113.092773,89.488098 
	C130.602219,94.889313 148.041046,100.660980 165.745789,106.668571 
z"/>
<path fill="#3C3A41" opacity="1.000000" stroke="none" 
	d="
M38.954201,56.396729 
	C43.460941,57.738529 47.837238,59.255699 52.026958,61.179253 
	C71.208191,69.985573 90.338593,78.902626 109.479309,87.796997 
	C110.197662,88.130814 110.833855,88.641449 112.500954,89.699905 
	C108.836334,91.369003 105.919861,92.654816 103.039139,94.016273 
	C83.649536,103.180000 64.272697,112.370781 44.875027,121.517365 
	C42.928738,122.435104 40.870991,123.116463 38.504570,123.938889 
	C38.097431,102.685448 38.039482,81.400635 38.035526,60.115818 
	C38.035316,58.997005 38.493206,57.878109 38.954201,56.396729 
z"/>
<path fill="#3C3A41" opacity="1.000000" stroke="none" 
	d="
M68.234398,247.943802 
	C63.395485,247.925735 58.556572,247.907654 53.233536,247.925171 
	C52.829063,222.958725 52.908714,197.956665 52.947845,172.489105 
	C57.653633,172.018311 62.399940,172.013031 67.578094,172.481216 
	C68.084755,197.951050 68.159576,222.947433 68.234398,247.943802 
z"/>
<path fill="#2C292C" opacity="1.000000" stroke="none" 
	d="
M278.540100,216.480682 
	C273.878021,216.945038 269.178406,216.945389 263.996582,216.446320 
	C263.553009,205.729034 263.591583,195.511185 263.630157,185.293320 
	C268.231262,186.783035 272.832336,188.272751 277.797913,189.848785 
	C278.275757,198.628967 278.389130,207.322815 278.540100,216.480682 
z"/>
<path fill="#F6F6F6" opacity="1.000000" stroke="none" 
	d="
M68.662109,247.826401 
	C68.159576,222.947433 68.084755,197.951050 68.050217,172.489151 
	C69.747818,172.015167 71.415855,171.880936 73.060471,172.021271 
	C78.535713,172.488480 81.565445,169.878311 83.480995,164.856796 
	C87.901649,153.268219 92.668785,141.811844 97.546722,130.053772 
	C110.454262,134.005386 123.110458,138.205063 135.949738,143.052002 
	C124.043541,188.455551 111.954277,233.211838 99.865021,277.968109 
	C94.433723,277.968109 89.002426,277.968109 82.997780,277.968109 
	C82.997780,271.501923 82.999069,265.426910 82.997498,259.351898 
	C82.994904,249.321045 81.234566,247.592026 71.076408,247.646637 
	C70.414116,247.650208 69.752007,247.687439 68.662109,247.826401 
z"/>
<path fill="#F5F5F5" opacity="1.000000" stroke="none" 
	d="
M263.351135,185.188782 
	C263.591583,195.511185 263.553009,205.729034 263.497742,216.405884 
	C246.336884,216.465363 248.587906,221.205673 248.581497,232.848740 
	C248.573318,247.652328 248.579514,262.455902 248.579514,277.987061 
	C243.011124,277.987061 237.768799,277.987061 232.017563,277.537842 
	C221.885818,241.459869 212.253448,205.833725 202.669876,170.194443 
	C202.217300,168.511429 202.198120,166.711868 201.977081,164.966583 
	C206.384888,166.268478 210.836716,167.438751 215.192612,168.895844 
	C231.169693,174.240372 247.114883,179.680252 263.351135,185.188782 
z"/>
<path fill="#3E3C43" opacity="1.000000" stroke="none" 
	d="
M202.010712,164.980026 
	C202.198120,166.711868 202.217300,168.511429 202.669876,170.194443 
	C212.253448,205.833725 221.885818,241.459869 231.594040,277.494110 
	C226.121536,277.921814 220.563614,277.943970 214.528870,277.642517 
	C198.050842,259.795380 182.049667,242.271866 166.042725,224.296173 
	C166.025803,216.567108 166.014648,209.290207 166.280121,201.827820 
	C173.205719,194.478287 179.971313,187.416153 186.400436,180.059982 
	C187.614960,178.670334 188.193817,175.982773 187.851547,174.116867 
	C186.900620,168.932571 185.310059,163.865601 183.972168,158.752274 
	C189.450485,160.498459 194.928787,162.244659 200.828125,164.404388 
	C201.509628,164.900162 201.770081,164.982361 202.030548,165.064575 
	C202.030548,165.064575 202.044342,164.993469 202.010712,164.980026 
M202.839432,228.650955 
	C199.800140,217.569366 196.760864,206.487793 193.521667,194.677307 
	C187.516983,201.160416 182.030579,207.083954 176.318008,213.251694 
	C186.594437,224.527939 196.621307,235.530304 206.648163,246.532684 
	C206.910294,246.413055 207.172440,246.293427 207.434570,246.173798 
	C205.958328,240.599777 204.482071,235.025757 202.839432,228.650955 
z"/>
<path fill="#F5F5F5" opacity="1.000000" stroke="none" 
	d="
M183.679337,158.568787 
	C185.310059,163.865601 186.900620,168.932571 187.851547,174.116867 
	C188.193817,175.982773 187.614960,178.670334 186.400436,180.059982 
	C179.971313,187.416153 173.205719,194.478287 165.988174,201.666061 
	C158.676117,194.597198 151.796585,187.625443 145.301819,180.311981 
	C143.972916,178.815567 143.235077,175.843735 143.682114,173.884521 
	C145.669662,165.173767 148.186981,156.583878 150.512772,147.950302 
	C155.384064,149.337265 160.255371,150.724228 165.509918,152.132568 
	C171.724274,154.231079 177.555389,156.308182 183.679337,158.568787 
z"/>
<path fill="#F5F5F5" opacity="1.000000" stroke="none" 
	d="
M202.013840,164.827454 
	C201.770081,164.982361 201.509628,164.900162 201.187149,164.556213 
	C201.467346,164.241241 201.758011,164.339874 202.013840,164.827454 
z"/>
<path fill="#F6F6F6" opacity="1.000000" stroke="none" 
	d="
M166.048477,224.748352 
	C182.049667,242.271866 198.050842,259.795380 214.065872,277.666534 
	C198.373642,278.018066 182.667557,278.021973 166.499634,278.093750 
	C150.042328,278.098694 134.046860,278.035828 117.656067,277.648590 
	C119.612305,274.748016 121.943779,272.153168 124.318710,269.598694 
	C138.222992,254.643341 152.137466,239.697449 166.048477,224.748352 
z"/>
<path fill="#575C68" opacity="1.000000" stroke="none" 
	d="
M166.042725,224.296173 
	C152.137466,239.697449 138.222992,254.643341 124.318710,269.598694 
	C121.943779,272.153168 119.612305,274.748016 117.195557,277.647644 
	C111.693199,277.977692 106.256035,277.984344 100.341934,277.979553 
	C111.954277,233.211838 124.043541,188.455551 136.233780,143.300934 
	C140.900314,144.382248 145.465897,145.861923 150.272125,147.645935 
	C148.186981,156.583878 145.669662,165.173767 143.682114,173.884521 
	C143.235077,175.843735 143.972916,178.815567 145.301819,180.311981 
	C151.796585,187.625443 158.676117,194.597198 165.711548,201.851547 
	C166.014648,209.290207 166.025803,216.567108 166.042725,224.296173 
M131.066895,219.575928 
	C128.671692,228.513885 126.276489,237.451828 123.881294,246.389786 
	C124.133209,246.542542 124.385124,246.695312 124.637032,246.848083 
	C134.938858,235.738800 145.240677,224.629517 155.728699,213.319412 
	C152.586853,209.964798 149.773834,206.941055 146.937851,203.938980 
	C144.144180,200.981674 141.327240,198.046356 137.959106,194.512329 
	C135.561203,203.199051 133.410187,210.991364 131.066895,219.575928 
z"/>
<path fill="#F2F2F3" opacity="1.000000" stroke="none" 
	d="
M202.922638,229.051346 
	C204.482071,235.025757 205.958328,240.599777 207.434570,246.173798 
	C207.172440,246.293427 206.910294,246.413055 206.648163,246.532684 
	C196.621307,235.530304 186.594437,224.527939 176.318008,213.251694 
	C182.030579,207.083954 187.516983,201.160416 193.521667,194.677307 
	C196.760864,206.487793 199.800140,217.569366 202.922638,229.051346 
z"/>
<path fill="#F3F3F3" opacity="1.000000" stroke="none" 
	d="
M131.163040,219.179810 
	C133.410187,210.991364 135.561203,203.199051 137.959106,194.512329 
	C141.327240,198.046356 144.144180,200.981674 146.937851,203.938980 
	C149.773834,206.941055 152.586853,209.964798 155.728699,213.319412 
	C145.240677,224.629517 134.938858,235.738800 124.637032,246.848083 
	C124.385124,246.695312 124.133209,246.542542 123.881294,246.389786 
	C126.276489,237.451828 128.671692,228.513885 131.163040,219.179810 
z"/>
</svg>